<svg xmlns="http://www.w3.org/2000/svg" width="16" height="16" viewBox="0 0 16 16">
  <title>apple-podcast</title>
  <g>
    <path d="M9.59,11.31a9.72,9.72,0,0,1-.43,2.78,2.62,2.62,0,0,1-.66,1.14.69.69,0,0,1-1.1,0,3,3,0,0,1-.76-1.46,11.29,11.29,0,0,1-.33-3.17,1.64,1.64,0,0,1,3.27-.08A7.09,7.09,0,0,1,9.59,11.31Z" style="fill: #aa1dd3"/>
    <path d="M6.3,6.86A1.66,1.66,0,1,1,8,8.51,1.66,1.66,0,0,1,6.3,6.86Z" style="fill: #aa1dd3"/>
    <g>
      <path d="M14.77,6.58A6.86,6.86,0,0,0,7.63.51,6.78,6.78,0,0,0,1.2,7.29a6.71,6.71,0,0,0,4.67,6.44c-.07-.31-.12-.61-.16-.92a.93.93,0,0,0-.36-.26,5.85,5.85,0,1,1,5.06.13.84.84,0,0,0-.21.11c0,.33-.09.66-.16,1A6.74,6.74,0,0,0,14.77,6.58Z" style="fill: #aa1dd3"/>
      <path d="M12.28,6.33a4.49,4.49,0,0,0-8.78.24,4.36,4.36,0,0,0,2.06,4.55c0-.37,0-.75,0-1.13l-.07-.08A3.52,3.52,0,0,1,4.4,7.52,3.57,3.57,0,0,1,8.65,3.87a3.39,3.39,0,0,1,2.7,2.48,3.42,3.42,0,0,1-1,3.59l0,0c0,.3,0,.61,0,.91v.25A4.41,4.41,0,0,0,12.28,6.33Z" style="fill: #aa1dd3"/>
    </g>
  </g>
</svg>
