<svg xmlns="http://www.w3.org/2000/svg" width="16" height="16" viewBox="0 0 16 16">
  <title>Google Podcast</title>
  <g>
    <path d="M2.38,7.49v1a.94.94,0,1,1-1.88,0v-1a.94.94,0,1,1,1.88,0Z" style="fill: #0066d9"/>
    <path d="M13.62,7.52v0a.94.94,0,1,1,1.88,0v0h0v1h0a.94.94,0,0,1-1.88,0h0v-1Z" style="fill: #4285f4"/>
    <path d="M5.61,10.56v1a.94.94,0,1,1-1.87,0v-1a.94.94,0,1,1,1.87,0Zm0-6.14V7.77h0a.94.94,0,0,1-1.87,0h0V4.42a.94.94,0,1,1,1.87,0Z" style="fill: #ea4335"/>
    <path d="M10.39,5.44a.94.94,0,1,0,1.87,0v-1a.94.94,0,1,0-1.87,0v1Z" style="fill: #34a853"/>
    <path d="M7.06,2.46a.94.94,0,1,0,1.88,0v-1a.94.94,0,0,0-1.88,0v1Zm0,11.08a.94.94,0,0,1,1.88,0v1a.94.94,0,1,1-1.88,0v-1Z" style="fill: #fab908"/>
    <path d="M10.39,8.26a.94.94,0,1,1,1.87,0v3.32a.94.94,0,1,1-1.87,0V8.26Z" style="fill: #34a853"/>
    <path d="M8.94,5.27v5.46a.94.94,0,0,1-1.88,0V5.27a.94.94,0,0,1,1.88,0Z" style="fill: #fab908"/>
  </g>
</svg>
