<svg xmlns="http://www.w3.org/2000/svg" width="16" height="16" viewBox="0 0 16 16">
  <title>Spotify</title>
  <g>
    <path d="M11.29,10.67a.46.46,0,0,1,.15.64.47.47,0,0,1-.64.16,8.64,8.64,0,0,0-6.59-.72A.47.47,0,0,1,4,9.83,9.63,9.63,0,0,1,11.29,10.67Z" style="fill: #0000"/>
    <path d="M12.17,8.47a.59.59,0,0,1-.62,1,9.84,9.84,0,0,0-7.47-.88.58.58,0,1,1-.34-1.11A11,11,0,0,1,12.17,8.47Z" style="fill: #0000"/>
    <path d="M13.15,5.94a.71.71,0,0,1,.25,1,.7.7,0,0,1-1,.24h0a12.5,12.5,0,0,0-8.71-.87.69.69,0,0,1-.88-.46.71.71,0,0,1,.47-.88A13.87,13.87,0,0,1,13.15,5.94Z" style="fill: #0000"/>
    <path d="M8,.5A7.5,7.5,0,1,1,.5,8,7.5,7.5,0,0,1,8,.5Zm5.4,6.4a.69.69,0,0,0-.25-1,13.82,13.82,0,0,0-9.83-1,.7.7,0,1,0,.41,1.34,12.45,12.45,0,0,1,8.71.87h0A.7.7,0,0,0,13.4,6.9Zm-1,2.37a.58.58,0,0,0-.19-.8,11,11,0,0,0-8.43-1,.59.59,0,0,0-.39.73.58.58,0,0,0,.73.39,9.84,9.84,0,0,1,7.47.88A.59.59,0,0,0,12.36,9.27Zm-.92,2.05a.47.47,0,0,0-.16-.64A9.51,9.51,0,0,0,4,9.84a.47.47,0,1,0,.21.91,8.64,8.64,0,0,1,6.59.72A.46.46,0,0,0,11.44,11.32Z" style="fill: #1ed760"/>
  </g>
</svg>
