<svg xmlns="http://www.w3.org/2000/svg" width="16" height="16" viewBox="0 0 16 16">
  <title>ivoox</title>
  <path d="M6.66,15.49a7.52,7.52,0,1,1,2.73,0c0-.06,0-.11,0-.17V9.51c0-1.06,0-2.12,0-3.18A.87.87,0,0,0,9,5.5a1.31,1.31,0,0,0-.58-.18c-1.34,0-2.67,0-4,0-.14,0-.18.05-.18.19,0,.77,0,1.53,0,2.3,0,.14,0,.18.18.18.66,0,1.33,0,2,0,.23,0,.23,0,.23.24,0,2.36,0,4.73,0,7.08A.65.65,0,0,1,6.66,15.49ZM7.92,4.71a1.51,1.51,0,0,0,0-3,1.49,1.49,0,0,0-1.52,1.5A1.47,1.47,0,0,0,7.92,4.71Z" style="fill: #ff8000"/>
</svg>
