<svg xmlns="http://www.w3.org/2000/svg" width="16" height="16" viewBox="0 0 16 16">
  <title>podimo</title>
  <g>
    <path d="M8.51,1.51a6.54,6.54,0,0,0-7,7" style="fill-opacity: 0;stroke: #03ddac;stroke-linecap: round;stroke-width: 1.5991112573866533px"/>
    <path d="M7.49,14.49a6.54,6.54,0,0,0,7-7" style="fill-opacity: 0;stroke: #03ddac;stroke-linecap: round;stroke-width: 1.5991112573866533px"/>
    <path d="M8.84,7A1.3,1.3,0,1,0,9,8.86,1.3,1.3,0,0,0,8.84,7Z" style="fill: #03ddac"/>
    <path d="M4.4,11.54s0-1.28,0-3.54A3.55,3.55,0,0,1,8,4.42,3.69,3.69,0,0,1,11.56,8a3.55,3.55,0,0,1-4.12,3.56" style="fill-opacity: 0;stroke: #03ddac;stroke-linecap: round;stroke-width: 1.5991112573866533px"/>
  </g>
</svg>
